<?xml version="1.0" encoding="UTF-8"?>
<svg id="Layer_1" xmlns="http://www.w3.org/2000/svg" version="1.1" viewBox="0 0 50 50">
  <!-- Generator: Adobe Illustrator 30.0.0, SVG Export Plug-In . SVG Version: 2.1.1 Build 123)  -->
  <defs>
    <style>
      .st0 {
        fill: #243b6f;
      }

      .st1 {
        fill: #316aa2;
      }
    </style>
  </defs>
  <path class="st1" d="M28.62,7.22c-1.02-1.08-3.02-1.44-4.65-.51l-12.32,7.19c-1.19.68-2.36,1.85-2.35,3.09v14.52c-.02.33.14.5.46.31l11.66-6.8c1.54-.92,2.41-1.49,2.4-2.95l-.05-4.97-3.53,2.17c-1.31.74-4.52-.55-5.79-1.82-.14-.15,0-.3.15-.4l10.19-5.83c1.45-.79,3.8-.33,3.83,1.12v9.73c-.01,4.04-.5,4.09-4.14,6.28l-14.52,8.44c-2.36,1.42-5.46-.57-5.42-3.07v-17.33c-.1-1.83,1.52-4.79,3.68-6.08L23,1.85c3-1.61,5.76.15,5.62,5.37Z"/>
  <path class="st0" d="M10.74,40.7c.98-.09,2.15-.2,3.35-.91l16.87-9.83c1.28-.66,1.86-2.12,1.8-3.18V8.26c.01-1.67-.56-3.39-1.35-4.57-.05-.18.03-.24.25-.16,2.5.94,5.84,3.97,5.81,7.42l-.03,16.55c-.12,3.76-2.55,5.97-5.54,7.57l-12.36,7.14c-2.35,1.26-6.76.46-8.85-1.27-.15-.14-.06-.22.05-.24Z"/>
  <path class="st0" d="M45.95,15.97l-.03,16.54c-.12,3.76-2.55,5.97-5.53,7.57l-12.36,7.14c-2.35,1.25-6.77.45-8.85-1.27-.15-.14-.06-.23.05-.24.98-.09,2.15-.2,3.36-.91l16.41-9.47c.28-.15.52-.33.74-.52l-3.29-1.92c1.12-1.32,1.8-3.14,1.91-4.12l2.89,1.88V13.27c.01-1.67-.56-3.39-1.35-4.57-.06-.17.03-.24.25-.16,2.5.94,5.83,3.97,5.8,7.43Z"/>
</svg>